<?xml version="1.0" encoding="UTF-8"?>
<svg width="1024" height="1024" viewBox="0 0 1024 1024" fill="none" xmlns="http://www.w3.org/2000/svg">
  <rect width="1024" height="1024" rx="256" fill="#0F172A"/>
  <path d="M512 256C387.2 256 288 355.2 288 480C288 604.8 387.2 704 512 704C636.8 704 736 604.8 736 480C736 355.2 636.8 256 512 256ZM512 640C419.2 640 352 572.8 352 480C352 387.2 419.2 320 512 320C604.8 320 672 387.2 672 480C672 572.8 604.8 640 512 640Z" fill="white"/>
  <path d="M512 768C387.2 768 288 867.2 288 992H736C736 867.2 636.8 768 512 768Z" fill="white"/>
</svg> 